<?xml version="1.0" encoding="utf-8"?>
<!-- Generator: Adobe Illustrator 24.3.0, SVG Export Plug-In . SVG Version: 6.00 Build 0)  -->
<svg version="1.1" id="Layer_1" xmlns="http://www.w3.org/2000/svg" xmlns:xlink="http://www.w3.org/1999/xlink" x="0px" y="0px"
	 viewBox="0 0 503 496" style="enable-background:new 0 0 503 496;" xml:space="preserve">
<style type="text/css">
	.st0{fill:#FFFFFF;stroke:#000000;stroke-miterlimit:10;}
	.st1{fill:none;stroke:#000000;stroke-miterlimit:10;}
	.st2{fill:#36A9E1;}
	.st3{fill:none;}
	.st4{fill:#95C11F;}
</style>
<path class="st0" d="M128.46,392.1"/>
<path class="st1" d="M126.08,388.7"/>
<path class="st1" d="M307.21,99.05"/>
<path class="st1" d="M259.68,93.2"/>
<path class="st1" d="M312.14,103.96"/>
<path class="st1" d="M317.77,311.92"/>
<path class="st1" d="M174.66,372.74"/>
<path class="st2" d="M149.32,81.86c10.37-67.74,169.23-36.3,223.9-4.82c9.87,5.68,51.01,37.89,69.17,86.6
	c13.21,28.99,14.63,27.36,17.92,40.82c11.53,47.09-2.87,73.37-1.94,78.52c0.37-2.45-39.76-11.16-40.13-8.71
	c-4.75-0.63-26.71-0.51-55.19,8.33c-19.17,5.95-31.97,14.72-45.28,23.85c-12.44,8.53-45.77,40.42-45.77,40.42
	c9.88-7.58-37.17,22.25-36.26,20.4c-1.35,2.75-35.26,13.52-54.21,8.88c-77.82-14.83-8.8-165.46,35.2-212.68
	c32.92-34.38,72.49-30.58,67.59,0.76c-9.47,60.63,49.85,64,50.52-2.83c13.54-3.6,3.59-46.71-9.95-43.11
	c-10.61-21.95-52.09-5.8-54.15-29.7c-0.24-2.8-21.84,1.75-33.51,4.63C202.52,97.72,64.28,248.56,92.95,325.66
	c-54.61-88.53,16.76-194.31,57.43-241.54"/>
<path class="st3" d="M141.57,409.77c-2.2,16.15,99.01,32.01,101.21,15.87c21.12-12.84,85.85-53.89,78.86-63.84"/>
<path class="st4" d="M307.53,355.25c4.34-5.57,19.4-26.06,45.87-39.51c0.78-0.4,1.42-0.71,1.83-0.91
	c13.4-8.36,10.89-8.22,52.1-18.32c13.28-0.84,32.37-0.3,53.69,6.99c22.5,7.7,6.14,10.18,5.58,11.46c-0.65,1.48,11.05-6.11-9.45,0.25
	c-18.37,5.7-35.43,29.74-32.39,49.68c0.23,1.52,0.34,1.47,0.53,2.64c3.92,25.14-46.34,56.82-75.86,70.83
	c-14.89,7.07-44.43,20.71-85.37,21.72c-73.68,1.82-132.99-37.78-131.31-43.44c1.08-3.63,25.79,11.81,63.02,6.42
	C242.75,416.26,288.77,379.32,307.53,355.25z"/>
<line class="st4" x1="646.34" y1="94.46" x2="707.57" y2="145.99"/>
<line class="st4" x1="646.34" y1="568.36" x2="477.12" y2="136.36"/>
</svg>
